<svg width="32" height="32" viewBox="0 0 32 32" fill="none" xmlns="http://www.w3.org/2000/svg">
  <!-- Background circle -->
  <circle cx="16" cy="16" r="14" fill="#3B82F6" stroke="#1E40AF" stroke-width="1"/>
  
  <!-- Dollar sign in center -->
  <path d="M14 8 L14 10 M14 22 L14 24 M18 8 L18 10 M18 22 L18 24" stroke="white" stroke-width="1.5" stroke-linecap="round"/>
  <path d="M11 12 C11 11, 12 10, 14 10 L18 10 C20 10, 21 11, 21 12 C21 13, 20 14, 18 14 L14 14 C12 14, 11 15, 11 16 C11 17, 12 18, 14 18 L18 18 C20 18, 21 17, 21 16" stroke="white" stroke-width="1.8" fill="none" stroke-linecap="round"/>
</svg>